<svg width="22" height="21" viewBox="0 0 22 21" fill="none" xmlns="http://www.w3.org/2000/svg">
<path d="M8 0C5.37665 0 3.25 2.12665 3.25 4.75C3.25 7.37335 5.37665 9.5 8 9.5C10.6234 9.5 12.75 7.37335 12.75 4.75C12.75 2.12665 10.6234 0 8 0Z" fill="white"/>
<path d="M18.75 6.75C18.75 6.33579 18.4142 6 18 6C17.5858 6 17.25 6.33579 17.25 6.75V9H15C14.5858 9 14.25 9.33579 14.25 9.75C14.25 10.1642 14.5858 10.5 15 10.5H17.25V12.75C17.25 13.1642 17.5858 13.5 18 13.5C18.4142 13.5 18.75 13.1642 18.75 12.75V10.5H21C21.4142 10.5 21.75 10.1642 21.75 9.75C21.75 9.33579 21.4142 9 21 9H18.75V6.75Z" fill="white"/>
<path d="M5 11C2.37665 11 0.25 13.1266 0.25 15.75C0.25 18.3734 2.37665 20.5 5 20.5H11C13.6234 20.5 15.75 18.3734 15.75 15.75C15.75 13.1266 13.6234 11 11 11H5Z" fill="white"/>
</svg>
