<svg width="32" height="26" viewBox="0 0 32 26" fill="none" xmlns="http://www.w3.org/2000/svg">
<path d="M20 0C19.4478 0 19 0.447715 19 1C19 1.55228 19.4478 2 20 2H21.3334C24.463 2 27 4.53705 27 7.66667V9C27 9.55229 27.4478 10 28 10C28.5523 10 29 9.55229 29 9V7.66667C29 3.43248 25.5676 0 21.3334 0H20Z" fill="white"/>
<path d="M10.6667 0C6.43252 0 3.00004 3.43248 3.00004 7.66667V9C3.00004 9.55229 3.44776 10 4.00004 10C4.55233 10 5.00004 9.55229 5.00004 9V7.66667C5.00004 4.53705 7.53709 2 10.6667 2H12C12.5523 2 13 1.55229 13 1C13 0.447716 12.5523 0 12 0H10.6667Z" fill="white"/>
<path d="M1.33337 12C0.781089 12 0.333374 12.4477 0.333374 13C0.333374 13.5523 0.781089 14 1.33337 14H30.6667C31.219 14 31.6667 13.5523 31.6667 13C31.6667 12.4477 31.219 12 30.6667 12H1.33337Z" fill="white"/>
<path d="M5.00004 17C5.00004 16.4477 4.55233 16 4.00004 16C3.44776 16 3.00004 16.4477 3.00004 17V18.3333C3.00004 22.5675 6.43252 26 10.6667 26H12C12.5523 26 13 25.5523 13 25C13 24.4477 12.5523 24 12 24H10.6667C7.53709 24 5.00004 21.4629 5.00004 18.3333V17Z" fill="white"/>
<path d="M29 17C29 16.4477 28.5523 16 28 16C27.4478 16 27 16.4477 27 17V18.3333C27 21.4629 24.463 24 21.3334 24H20C19.4478 24 19 24.4477 19 25C19 25.5523 19.4478 26 20 26H21.3334C25.5676 26 29 22.5675 29 18.3333V17Z" fill="white"/>
</svg>
